<?xml version="1.0" standalone="no"?>
<!DOCTYPE svg PUBLIC "-//W3C//DTD SVG 20010904//EN"
 "http://www.w3.org/TR/2001/REC-SVG-20010904/DTD/svg10.dtd">
<svg version="1.0" xmlns="http://www.w3.org/2000/svg"
 width="1024.000000pt" height="1024.000000pt" viewBox="0 0 1024.000000 1024.000000"
 preserveAspectRatio="xMidYMid meet">
<metadata>
Created by potrace 1.14, written by Peter Selinger 2001-2017
</metadata>
<g transform="translate(0.000000,1024.000000) scale(0.100000,-0.100000)"
fill="#000000" stroke="none">
<path d="M3564 7291 c-2 -2 -4 -924 -4 -2048 l0 -2043 1335 0 1335 0 0 355 0
355 -880 0 -880 0 0 1693 0 1692 -451 0 c-248 0 -453 -2 -455 -4z"/>
<path d="M7113 4145 c-228 -50 -393 -253 -393 -483 1 -209 129 -387 335 -464
52 -19 79 -22 210 -22 129 0 158 3 209 22 229 85 362 304 327 540 -30 201
-186 364 -390 408 -82 17 -216 17 -298 -1z"/>
</g>
</svg>
